<svg width="480" height="130" fill="none" xmlns="http://www.w3.org/2000/svg"><path d="M29.473 4.557v43.857c.05 1.295.522 2.39 1.417 3.287.945.897 2.065 1.345 3.358 1.345h.895l.075.747H12.535v-.747h.97c1.244 0 2.313-.448 3.208-1.345.946-.896 1.468-1.967 1.567-3.212V4.556H8.208c-2.289.05-4.104.772-5.447 2.167C1.418 8.12.746 9.937.746 12.178v.897H0v-13C2.04.92 4.974 1.37 8.804 1.42h30.07c1.542 0 3.208-.15 4.999-.449 1.84-.299 3.109-.597 3.805-.896v13h-.746v-.897c0-3.088-1.169-5.28-3.507-6.575-1.094-.647-2.412-.996-3.954-1.046h-9.998zM54.618 53.046c1.294 0 2.388-.448 3.284-1.345.945-.946 1.442-2.067 1.492-3.362V6.724c-.1-1.295-.473-2.241-1.12-2.839-1.193-1.096-2.412-1.644-3.656-1.644h-.97v-.747h28.578c2.437 0 4.452-.174 6.043-.523C89.861.573 90.831.3 91.18.15v13.075l-.746-.075v-.821c0-3.089-1.144-5.28-3.432-6.575-1.094-.648-2.388-.996-3.88-1.046H70.586v21.741h9.849c1.84-.05 3.358-.672 4.551-1.867 1.194-1.246 1.791-2.765 1.791-4.558v-.672h.746v17.258h-.746v-.598c0-1.842-.597-3.362-1.79-4.557-1.145-1.195-2.612-1.818-4.403-1.868h-9.998v20.995h9.774c3.632 0 6.666-1.047 9.103-3.139 2.487-2.091 4.328-5.055 5.522-8.89h.746l-3.432 15.241h-38.65v-.747h.97zM154.516 53.046h.672v.747h-23.802v-.747h.671c1.095 0 1.891-.324 2.388-.971.547-.698.821-1.345.821-1.943 0-.597-.125-1.195-.373-1.793l-3.656-9.19h-17.46l-3.88 9.19c-.249.648-.373 1.27-.373 1.868 0 .548.273 1.17.821 1.868.547.647 1.368.971 2.462.971h.597v.747H97.436v-.747h.672c1.144 0 2.288-.349 3.432-1.046 1.144-.697 2.089-1.743 2.836-3.138l17.235-39.075c2.338-4.93 3.582-8.193 3.731-9.787h.672l22.16 48.713c.746 1.444 1.691 2.54 2.835 3.287 1.144.697 2.313 1.046 3.507 1.046zm-39.471-17.035h14.923l-7.237-18.379-7.686 18.38z" fill="#000"/><path d="M225.386 53.046h1.194v.747h-22.384v-.672h1.119c.845-.05 1.567-.399 2.164-1.046.596-.648.845-1.37.746-2.167l-2.91-27.12-14.028 24.206c-1.84 3.088-2.785 5.853-2.835 8.293h-.746L168.53 23.011l-2.91 26.897c-.099.797.149 1.544.746 2.241.597.648 1.318.972 2.164.972h1.119v.672h-15.594v-.747h1.194c1.393 0 2.586-.423 3.581-1.27 1.045-.847 1.667-1.993 1.866-3.437L166.889.45h.671l23.13 38.103L212.925.448h.672l6.342 47.891c.249 1.444.871 2.59 1.865 3.437a5.532 5.532 0 0 0 3.582 1.27zM301.231 2.241h-.672c-1.243 0-2.512.374-3.805 1.121-1.243.747-2.139 1.818-2.686 3.213l-12.535 40.27c-.846 2.74-1.269 5.28-1.269 7.62v.673h-.746l-16.266-36.086-11.789 27.793c-1.144 2.889-1.741 5.653-1.79 8.293h-.746L231.094 6.575c-.647-1.445-1.567-2.516-2.761-3.213-1.194-.747-2.412-1.12-3.656-1.12h-.597v-.748h22.757v.747h-.671c-1.045 0-1.841.349-2.388 1.046-.497.648-.746 1.27-.746 1.868 0 .598.1 1.17.299 1.719l9.177 26L266.013.299l.672.075 14.848 32.798 7.461-26.298a6.52 6.52 0 0 0 .224-1.719c0-.598-.249-1.22-.746-1.868-.448-.697-1.219-1.046-2.313-1.046h-.672v-.747h15.744v.747zM310.944 7.77c5.322-4.881 12.46-7.322 21.414-7.322 9.003 0 16.141 2.44 21.414 7.322 5.322 4.881 7.984 11.506 7.984 19.874 0 8.367-2.662 14.992-7.984 19.873-5.273 4.881-12.411 7.322-21.414 7.322-8.954 0-16.092-2.44-21.414-7.322-5.273-4.881-7.91-11.506-7.91-19.873 0-8.368 2.637-14.993 7.91-19.874zm8.879 37.506c3.084 4.283 7.262 6.425 12.535 6.425 5.272 0 9.451-2.142 12.535-6.425 3.084-4.334 4.626-10.21 4.626-17.632 0-7.422-1.542-13.274-4.626-17.558-3.084-4.333-7.263-6.5-12.535-6.5-5.273 0-9.451 2.167-12.535 6.5-3.035 4.284-4.552 10.136-4.552 17.558 0 7.421 1.517 13.299 4.552 17.632zM389.019 4.782H385.587v43.557c.05 1.295.522 2.416 1.418 3.362.945.897 2.064 1.345 3.357 1.345h.97v.747H368.65v-.747h.97c1.791 0 3.158-.772 4.104-2.316a5.24 5.24 0 0 0 .671-2.316V6.948c-.05-1.295-.547-2.39-1.492-3.287-.896-.946-1.99-1.42-3.283-1.42h-.97v-.747h25.592c4.825 0 8.904 1.046 12.237 3.138 1.691 1.046 3.034 2.516 4.029 4.408.995 1.843 1.492 4.284 1.492 7.322 0 2.989-1.044 5.878-3.133 8.667-2.089 2.789-5.124 4.383-9.103 4.781 2.885.947 5.422 3.138 7.61 6.575 5.373 8.617 9.352 13.747 11.939 15.39 1.293.798 2.91 1.221 4.85 1.271v.747h-7.313c-4.327 0-7.934-.573-10.819-1.718-2.835-1.146-5.073-3.163-6.715-6.052-.945-1.644-3.009-5.902-6.193-12.776-1.393-3.038-3.084-4.707-5.074-5.006v-.747h2.313c2.239 0 4.204-.672 5.895-2.017 1.741-1.345 2.91-3.536 3.507-6.575.199-1.046.298-1.867.298-2.465 0-4.085-.82-7.023-2.462-8.816-1.642-1.843-3.756-2.79-6.342-2.84h-2.239zM426.129 53.046c1.293 0 2.387-.448 3.283-1.345.945-.946 1.442-2.067 1.492-3.362V6.874c-.05-1.794-.87-3.138-2.462-4.035a4.578 4.578 0 0 0-2.313-.598h-.97v-.747h22.682l-.074.747h-.896c-1.79 0-3.158.772-4.103 2.316a4.197 4.197 0 0 0-.672 2.317v41.465c0 1.295.473 2.416 1.418 3.362.945.897 2.064 1.345 3.357 1.345h.896l.074.747h-22.682v-.747h.97zm53.871.747h-6.118c-7.561 0-12.909-2.067-16.042-6.201-8.904-12.103-13.356-18.255-13.356-18.454l17.683-23.46c.398-.498.597-.946.597-1.345 0-.398-.074-.747-.224-1.046-.398-.747-1.094-1.12-2.089-1.12h-.746v-.673h17.087v.673h-.299c-3.333 0-6.044 1.195-8.133 3.586l-14.55 17.259 18.579 25.402c2.289 2.988 4.825 4.532 7.611 4.632v.747zM90.126 127.759h1.194v.747H68.936v-.673h1.12c.845-.049 1.566-.398 2.163-1.046.597-.647.846-1.369.746-2.166L70.055 97.5l-14.027 24.207c-1.84 3.088-2.786 5.852-2.836 8.293h-.746L33.271 97.724l-2.91 26.897c-.1.797.149 1.544.746 2.241.597.648 1.318.971 2.163.971h1.12v.673H18.795v-.747h1.194c1.393 0 2.587-.424 3.582-1.271 1.044-.846 1.666-1.992 1.865-3.436l6.193-47.891h.671l23.13 38.103 22.236-38.103h.671l6.343 47.891c.248 1.444.87 2.59 1.865 3.436a5.53 5.53 0 0 0 3.581 1.271z" fill="#000"/><path d="M147.514 127.759h.671v.747h-23.802v-.747h.672c1.094 0 1.89-.324 2.388-.972.547-.697.82-1.344.82-1.942 0-.598-.124-1.196-.373-1.793l-3.656-9.19h-17.459l-3.88 9.19c-.249.647-.373 1.27-.373 1.868 0 .547.273 1.17.82 1.867.547.648 1.368.972 2.463.972h.596v.747H90.434v-.747h.672c1.144 0 2.288-.349 3.432-1.046 1.144-.698 2.089-1.744 2.835-3.138L114.61 84.5c2.338-4.931 3.581-8.194 3.731-9.787h.671l22.161 48.712c.746 1.445 1.691 2.541 2.835 3.288 1.144.697 2.313 1.046 3.507 1.046zm-39.471-17.035h14.923l-7.238-18.38-7.685 18.38zM176.881 129.552c-8.506 0-15.345-2.441-20.519-7.322-5.123-4.931-7.685-11.556-7.685-19.874 0-8.367 2.562-14.992 7.685-19.873 5.174-4.882 12.163-7.322 20.967-7.322 3.979 0 7.834.398 11.565 1.195 3.731.747 6.74 1.694 9.028 2.84l.15 12.85h-.672c-1.293-4.831-3.507-8.318-6.641-10.46-3.133-2.191-6.864-3.287-11.192-3.287-6.018 0-10.645 2.166-13.878 6.5-3.233 4.283-4.85 10.186-4.85 17.707 0 7.471 1.468 13.323 4.403 17.557 2.984 4.234 7.187 6.351 12.609 6.351 3.93 0 7.213-1.121 9.849-3.362 1.294-1.146 2.239-2.491 2.836-4.035v-11.431c0-1.096-.349-1.917-1.045-2.465-.647-.598-1.592-.897-2.835-.897h-1.194v-.747h20.966v.747h-1.119c-1.194 0-2.114.299-2.761.897-.646.548-.97 1.369-.97 2.465v12.328c-1.939 2.54-5.148 4.781-9.625 6.724-4.477 1.942-9.501 2.914-15.072 2.914zM263.602 127.759h.672v.747h-23.802v-.747h.672c1.094 0 1.89-.324 2.387-.972.548-.697.821-1.344.821-1.942 0-.598-.124-1.196-.373-1.793l-3.656-9.19h-17.46l-3.88 9.19c-.248.647-.373 1.27-.373 1.868 0 .547.274 1.17.821 1.867.547.648 1.368.972 2.462.972h.597v.747h-15.967v-.747h.671c1.144 0 2.289-.349 3.433-1.046 1.144-.698 2.089-1.744 2.835-3.138L230.698 84.5c2.338-4.931 3.581-8.194 3.73-9.787h.672l22.16 48.712c.746 1.445 1.692 2.541 2.836 3.288 1.144.697 2.313 1.046 3.506 1.046zm-39.47-17.035h14.922l-7.237-18.38-7.685 18.38zM268.215 74.787c.746.3 2.04.598 3.88.897 1.89.299 3.208.448 3.955.448h24.995c2.089 0 3.855-.124 5.298-.373 1.442-.25 2.288-.449 2.537-.598v.672l-27.607 49.535h15.668c3.184 0 5.945-1.071 8.283-3.213 2.387-2.142 4.078-5.03 5.073-8.667h.746l-2.686 15.018h-41.186v-.673l27.383-48.563h-18.057c-3.134.05-5.347 1.27-6.64 3.661-.597 1.146-.896 2.466-.896 3.96v.896h-.746v-13zM319.112 127.759c1.293 0 2.387-.449 3.283-1.345.945-.947 1.442-2.067 1.492-3.362V81.586c-.05-1.295-.547-2.39-1.492-3.287-.896-.897-1.99-1.345-3.283-1.345h-.97v-.747h22.682l-.074.747h-.896c-1.293 0-2.412.448-3.357 1.345-.945.896-1.418 1.992-1.418 3.287v41.466c0 1.295.473 2.415 1.418 3.362.945.896 2.064 1.345 3.357 1.345h.896l.074.747h-22.682v-.747h.97zM406.615 76.954c-1.741 0-3.06.747-3.955 2.241-.398.648-.622 1.395-.671 2.242v38.551c0 3.338.223 6.152.671 8.443l.224 1.121h-.672l-37.68-35.937v29.661c0 1.245.448 2.316 1.343 3.212.896.847 1.965 1.271 3.209 1.271h1.417v.747h-22.608v-.747h1.343c1.294 0 2.388-.424 3.283-1.271.896-.896 1.344-1.992 1.344-3.287V84.425c0-3.287-.224-6.026-.672-8.218l-.149-1.12h.671l37.68 35.936V81.512c-.049-1.296-.522-2.366-1.417-3.213-.896-.897-1.965-1.345-3.209-1.345h-1.343v-.747h22.608v.747h-1.417zM415.017 127.759c1.293 0 2.387-.449 3.283-1.345.945-.947 1.442-2.067 1.492-3.362V81.437c-.099-1.295-.472-2.242-1.119-2.84-1.194-1.095-2.413-1.643-3.656-1.643h-.97v-.747h28.577c2.437 0 4.452-.174 6.044-.523 1.591-.399 2.561-.672 2.91-.822v13.075l-.747-.075v-.822c0-3.088-1.144-5.28-3.432-6.575-1.094-.647-2.387-.996-3.88-1.046h-12.535v21.742h9.849c1.841-.05 3.358-.672 4.552-1.868 1.193-1.245 1.79-2.764 1.79-4.557v-.673h.747v17.259h-.747v-.598c0-1.843-.597-3.362-1.79-4.557-1.144-1.196-2.612-1.818-4.403-1.868h-9.998v20.994h9.775c3.631 0 6.665-1.046 9.103-3.138 2.487-2.092 4.327-5.055 5.521-8.891h.746l-3.432 15.242h-38.65v-.747h.97z" fill="#000"/></svg>