<svg width="260" height="16" fill="none" xmlns="http://www.w3.org/2000/svg"><path d="M8.18 1.82v11.74a1.265 1.265 0 0 0 1.28 1.24h.24l.02.2H3.64v-.2h.26c.333 0 .62-.12.86-.36.253-.24.393-.527.42-.86V1.82h-2.7c-.613.013-1.1.207-1.46.58-.36.373-.54.86-.54 1.46v.24h-.2V.62c.547.227 1.333.347 2.36.36h8.06c.413 0 .86-.04 1.34-.12.493-.08.833-.16 1.02-.24V4.1h-.2v-.24c0-.827-.313-1.413-.94-1.76-.293-.173-.647-.267-1.06-.28H8.18zM15.42 14.8c.347 0 .64-.12.88-.36.254-.253.387-.553.4-.9V2.4c-.026-.347-.126-.6-.3-.76-.32-.293-.646-.44-.98-.44h-.26V1h7.66c.654 0 1.194-.047 1.62-.14.427-.107.687-.18.78-.22v3.5l-.2-.02V3.9c0-.827-.306-1.413-.92-1.76a2.152 2.152 0 0 0-1.04-.28H19.7v5.82h2.64c.494-.013.9-.18 1.22-.5.32-.333.48-.74.48-1.22v-.18h.2v4.62h-.2v-.16c0-.493-.16-.9-.48-1.22-.306-.32-.7-.487-1.18-.5H19.7v5.62h2.62c.974 0 1.787-.28 2.44-.84.667-.56 1.16-1.353 1.48-2.38h.2L25.52 15H15.16v-.2h.26zM42.697 14.8h.18v.2h-6.38v-.2h.18c.294 0 .507-.087.64-.26.147-.187.22-.36.22-.52 0-.16-.033-.32-.1-.48l-.98-2.46h-4.68l-1.04 2.46c-.066.173-.1.34-.1.5 0 .147.074.313.22.5.147.173.367.26.66.26h.16v.2h-4.28v-.2h.18c.307 0 .614-.093.92-.28.307-.187.56-.467.76-.84l4.62-10.46c.627-1.32.96-2.193 1-2.62h.18l5.94 13.04c.2.387.454.68.76.88.307.187.62.28.94.28zm-10.58-4.56h4l-1.94-4.92-2.06 4.92zM62.194 14.8h.32v.2h-6v-.18h.3a.832.832 0 0 0 .58-.28.697.697 0 0 0 .2-.58l-.78-7.26-3.76 6.48c-.493.827-.747 1.567-.76 2.22h-.2l-5.14-8.64-.78 7.2c-.027.213.04.413.2.6.16.173.353.26.58.26h.3V15h-4.18v-.2h.32c.373 0 .693-.113.96-.34.28-.227.447-.533.5-.92L46.514.72h.18l6.2 10.2 5.96-10.2h.18l1.7 12.82c.067.387.233.693.5.92.28.227.6.34.96.34zM83.024 1.2h-.18c-.333 0-.673.1-1.02.3-.333.2-.573.487-.72.86l-3.36 10.78c-.227.733-.34 1.413-.34 2.04v.18h-.2l-4.36-9.66-3.16 7.44c-.307.773-.467 1.513-.48 2.22h-.2l-4.78-13c-.173-.387-.42-.673-.74-.86-.32-.2-.647-.3-.98-.3h-.16V1h6.1v.2h-.18c-.28 0-.493.093-.64.28-.133.173-.2.34-.2.5 0 .16.027.313.08.46l2.46 6.96 3.62-8.72.18.02 3.98 8.78 2-7.04c.04-.147.06-.3.06-.46 0-.16-.067-.327-.2-.5-.12-.187-.327-.28-.62-.28h-.18V1h4.22v.2zM86.127 2.68c1.427-1.307 3.34-1.96 5.74-1.96 2.414 0 4.327.653 5.74 1.96 1.427 1.307 2.14 3.08 2.14 5.32s-.713 4.013-2.14 5.32c-1.413 1.307-3.326 1.96-5.74 1.96-2.4 0-4.313-.653-5.74-1.96-1.413-1.307-2.12-3.08-2.12-5.32s.707-4.013 2.12-5.32zm2.38 10.04c.827 1.147 1.947 1.72 3.36 1.72 1.414 0 2.534-.573 3.36-1.72.827-1.16 1.24-2.733 1.24-4.72 0-1.987-.413-3.553-1.24-4.7-.826-1.16-1.946-1.74-3.36-1.74-1.413 0-2.533.58-3.36 1.74-.813 1.147-1.22 2.713-1.22 4.7s.407 3.56 1.22 4.72zM107.555 1.88H106.635v11.66c.014.347.14.647.38.9.254.24.554.36.9.36h.26v.2h-6.08v-.2h.26c.48 0 .847-.207 1.1-.62.107-.187.167-.393.18-.62V2.46a1.231 1.231 0 0 0-.4-.88 1.165 1.165 0 0 0-.88-.38h-.26V1h6.86c1.294 0 2.387.28 3.28.84.454.28.814.673 1.08 1.18.267.493.4 1.147.4 1.96 0 .8-.28 1.573-.84 2.32-.56.747-1.373 1.173-2.44 1.28.774.253 1.454.84 2.04 1.76 1.44 2.307 2.507 3.68 3.2 4.12.347.213.78.327 1.3.34v.2h-1.96c-1.16 0-2.126-.153-2.9-.46-.76-.307-1.36-.847-1.8-1.62-.253-.44-.806-1.58-1.66-3.42-.373-.813-.826-1.26-1.36-1.34v-.2h.62c.6 0 1.127-.18 1.58-.54.467-.36.78-.947.94-1.76.054-.28.08-.5.08-.66 0-1.093-.22-1.88-.66-2.36-.44-.493-1.006-.747-1.7-.76h-.6zM118.002 14.8c.347 0 .64-.12.88-.36.254-.253.387-.553.4-.9V2.44c-.013-.48-.233-.84-.66-1.08a1.225 1.225 0 0 0-.62-.16h-.26V1h6.08l-.02.2h-.24c-.48 0-.846.207-1.1.62-.12.187-.18.393-.18.62v11.1a1.267 1.267 0 0 0 1.28 1.26h.24l.02.2h-6.08v-.2h.26zm14.44.2h-1.64c-2.026 0-3.46-.553-4.3-1.66-2.386-3.24-3.58-4.887-3.58-4.94l4.74-6.28c.107-.133.16-.253.16-.36 0-.107-.02-.2-.06-.28-.106-.2-.293-.3-.56-.3h-.2V1h4.58v.18h-.08c-.893 0-1.62.32-2.18.96l-3.9 4.62 4.98 6.8c.614.8 1.294 1.213 2.04 1.24v.2zM157.979 14.8h.32v.2h-6v-.18h.3a.831.831 0 0 0 .58-.28.696.696 0 0 0 .2-.58l-.78-7.26-3.76 6.48c-.493.827-.747 1.567-.76 2.22h-.2l-5.14-8.64-.78 7.2c-.027.213.04.413.2.6a.76.76 0 0 0 .58.26h.3V15h-4.18v-.2h.32c.373 0 .693-.113.96-.34.28-.227.447-.533.5-.92l1.66-12.82h.18l6.2 10.2 5.96-10.2h.18l1.7 12.82c.067.387.233.693.5.92.28.227.6.34.96.34zM173.862 14.8h.18v.2h-6.38v-.2h.18c.293 0 .506-.087.64-.26.146-.187.22-.36.22-.52 0-.16-.034-.32-.1-.48l-.98-2.46h-4.68l-1.04 2.46c-.067.173-.1.34-.1.5 0 .147.073.313.22.5.146.173.366.26.66.26h.16v.2h-4.28v-.2h.18c.306 0 .613-.093.92-.28.306-.187.56-.467.76-.84l4.62-10.46c.626-1.32.96-2.193 1-2.62h.18l5.94 13.04c.2.387.453.68.76.88.306.187.62.28.94.28zm-10.58-4.56h4l-1.94-4.92-2.06 4.92zM182.233 15.28c-2.28 0-4.113-.653-5.5-1.96-1.373-1.32-2.06-3.093-2.06-5.32 0-2.24.687-4.013 2.06-5.32 1.387-1.307 3.26-1.96 5.62-1.96 1.067 0 2.1.107 3.1.32 1 .2 1.807.453 2.42.76l.04 3.44h-.18c-.346-1.293-.94-2.227-1.78-2.8-.84-.587-1.84-.88-3-.88-1.613 0-2.853.58-3.72 1.74-.866 1.147-1.3 2.727-1.3 4.74 0 2 .394 3.567 1.18 4.7.8 1.133 1.927 1.7 3.38 1.7 1.054 0 1.934-.3 2.64-.9.347-.307.6-.667.76-1.08V9.4c0-.293-.093-.513-.28-.66-.173-.16-.426-.24-.76-.24h-.32v-.2h5.62v.2h-.3c-.32 0-.566.08-.74.24-.173.147-.26.367-.26.66v3.3c-.52.68-1.38 1.28-2.58 1.8-1.2.52-2.546.78-4.04.78zM205.979 14.8h.18v.2h-6.38v-.2h.18c.293 0 .506-.087.64-.26.146-.187.22-.36.22-.52 0-.16-.034-.32-.1-.48l-.98-2.46h-4.68l-1.04 2.46c-.067.173-.1.34-.1.5 0 .147.073.313.22.5.146.173.366.26.66.26h.16v.2h-4.28v-.2h.18c.306 0 .613-.093.92-.28.306-.187.56-.467.76-.84l4.62-10.46c.626-1.32.96-2.193 1-2.62h.18l5.94 13.04c.2.387.453.68.76.88.306.187.62.28.94.28zm-10.58-4.56h4l-1.94-4.92-2.06 4.92zM207.715.62c.2.08.547.16 1.04.24.507.08.86.12 1.06.12h6.7c.56 0 1.034-.033 1.42-.1.387-.067.614-.12.68-.16V.9l-7.4 13.26h4.2c.854 0 1.594-.287 2.22-.86.64-.573 1.094-1.347 1.36-2.32h.2l-.72 4.02h-11.04v-.18l7.34-13h-4.84c-.84.013-1.433.34-1.78.98-.16.307-.24.66-.24 1.06v.24h-.2V.62zM221.858 14.8c.347 0 .64-.12.88-.36.253-.253.387-.553.4-.9V2.44a1.235 1.235 0 0 0-.4-.88c-.24-.24-.533-.36-.88-.36h-.26V1h6.08l-.02.2h-.24c-.347 0-.647.12-.9.36s-.38.533-.38.88v11.1c0 .347.127.647.38.9.253.24.553.36.9.36h.24l.02.2h-6.08v-.2h.26zM245.813 1.2c-.467 0-.82.2-1.06.6a1.26 1.26 0 0 0-.18.6v10.32c0 .893.06 1.647.18 2.26l.06.3h-.18l-10.1-9.62v7.94c0 .333.12.62.36.86.24.227.526.34.86.34h.38v.2h-6.06v-.2h.36c.346 0 .64-.113.88-.34.24-.24.36-.533.36-.88V3.2c0-.88-.06-1.613-.18-2.2l-.04-.3h.18l10.1 9.62v-7.9a1.202 1.202 0 0 0-.38-.86c-.24-.24-.527-.36-.86-.36h-.36V1h6.06v.2h-.38zM248.565 14.8c.347 0 .64-.12.88-.36.253-.253.387-.553.4-.9V2.4c-.027-.347-.127-.6-.3-.76-.32-.293-.647-.44-.98-.44h-.26V1h7.66c.653 0 1.193-.047 1.62-.14.427-.107.687-.18.78-.22v3.5l-.2-.02V3.9c0-.827-.307-1.413-.92-1.76a2.151 2.151 0 0 0-1.04-.28h-3.36v5.82h2.64c.493-.013.9-.18 1.22-.5.32-.333.48-.74.48-1.22v-.18h.2v4.62h-.2v-.16c0-.493-.16-.9-.48-1.22-.307-.32-.7-.487-1.18-.5h-2.68v5.62h2.62c.973 0 1.787-.28 2.44-.84.667-.56 1.16-1.353 1.48-2.38h.2l-.92 4.08h-10.36v-.2h.26z" fill="#000"/></svg>