<svg width="481" height="131" fill="none" xmlns="http://www.w3.org/2000/svg"><path d="M49.274 11.788h-17.68v44.515H18.895V11.788H.967V1.648h48.307v10.14zM101.375 56.303H58.298V1.648h42.33v10.14h-29.88v11.87h27.888v10.14H70.748v12.86h30.627v9.645zM161.943 56.303h-13.695l-3.984-11.871h-20.917l-3.984 11.87h-13.446l20.418-54.654h14.941l20.667 54.655zm-19.92-21.269-6.972-18.795a66.577 66.577 0 0 1-1.245-4.699h-.249c-.166 1.32-.581 2.968-1.245 4.947l-6.226 18.547h15.937zM226.744 56.303h-11.952V23.906c0-3.463.166-7.584.498-12.366h-.249a78.285 78.285 0 0 1-1.992 9.398l-10.21 35.365h-10.458l-10.209-36.354a427.27 427.27 0 0 1-1.992-8.409h-.249c0 .99.083 2.391.249 4.205.166 4.946.249 8.49.249 10.634v29.924h-11.703V1.648h18.426l9.711 35.86c.166.989.415 2.967.747 5.935 0-.495.083-1.154.249-1.979 0-2.143.166-3.462.498-3.957l9.711-35.859h18.676v54.655zM304.742 1.648 292.79 56.303h-13.945l-8.466-34.87c-.498-1.814-.83-3.875-.996-6.183-.166 2.638-.498 4.699-.996 6.183l-8.964 34.87h-14.442L233.029 1.648h12.699l6.225 36.601c.166.825.332 2.39.498 4.7 0-.495.083.082.249 1.73h.249c.332-2.473.664-4.616.996-6.43l8.466-36.6h13.197l8.964 37.095c0 .165.083.495.249.99.332 1.978.498 3.626.498 4.945h.249c.166-1.978.415-4.04.747-6.182l5.977-36.849h12.45zM364.313 29.346c-.996 17.641-10.043 26.957-27.141 27.946-17.264-.99-26.394-10.305-27.39-27.946.83-18.3 9.96-27.78 27.39-28.44 16.932.99 25.979 10.47 27.141 28.44zm-13.695 0c-.332-11.376-4.897-17.311-13.695-17.806-8.964.495-13.695 6.43-14.193 17.806.332 11.211 4.98 17.064 13.944 17.559 8.964-.33 13.612-6.183 13.944-17.559zM422.142 56.055h-15.687l-13.446-21.02h-7.221v21.268h-12.451V1.648h25.15c13.446.33 20.418 5.77 20.916 16.322.166 9.068-4.316 14.509-13.446 16.322l16.185 21.763zm-25.647-44.762h-10.707v14.591h10.707c6.64 0 9.877-2.39 9.711-7.172.332-5.11-2.905-7.584-9.711-7.419zM480.967 56.055H465.28l-15.937-23-8.217 8.904v14.344h-12.45V1.648h12.45v24.978l22.66-24.73h15.438l-21.913 22.999 23.656 31.16zM85.628 130.164H73.676V97.767c0-3.462.166-7.584.498-12.365h-.249a78.281 78.281 0 0 1-1.992 9.398l-10.21 35.364H51.267l-10.21-36.353a427.14 427.14 0 0 1-1.991-8.409h-.25c0 .99.084 2.39.25 4.204.166 4.946.248 8.491.248 10.634v29.924H27.61V75.51h18.427l9.71 35.859c.167.989.416 2.968.748 5.935 0-.494.083-1.154.249-1.978 0-2.143.166-3.462.498-3.957l9.71-35.86h18.676v54.655zM147.939 130.164h-13.695l-3.984-11.87h-20.917l-3.984 11.87H91.913l20.418-54.654h14.941l20.667 54.654zm-19.92-21.268-6.972-18.795a66.562 66.562 0 0 1-1.245-4.699h-.249c-.166 1.32-.581 2.968-1.246 4.946l-6.225 18.548h15.937zM204.523 88.617l-11.455 4.204c-2.656-4.946-7.221-7.419-13.695-7.419-8.3.825-12.782 6.677-13.446 17.559.332 11.211 5.146 17.229 14.442 18.053 6.308 0 10.707-1.896 13.197-5.688v-6.677h-16.185v-9.892h27.64v20.279c-3.818 7.913-12.202 11.87-25.15 11.87-17.43-.659-26.477-10.057-27.141-28.193.996-17.64 9.794-26.956 26.394-27.945 12.616 0 21.083 4.616 25.399 13.85zM266.086 130.164h-13.695l-3.984-11.87h-20.916l-3.984 11.87H210.06l20.419-54.654h14.94l20.667 54.654zm-19.92-21.268-6.972-18.795a66.562 66.562 0 0 1-1.245-4.699h-.249c-.166 1.32-.581 2.968-1.245 4.946l-6.225 18.548h15.936zM319.682 130.164h-49.054v-9.397l31.873-34.87h-29.134V75.51h45.07v10.14l-32.62 34.869h33.865v9.645zM340.409 130.164H327.71V75.51h12.699v54.654zM399.732 130.164h-12.699l-21.664-34.128c-1.494-2.473-2.49-4.204-2.988-5.193.166 2.473.249 5.605.249 9.397v29.924h-11.703V75.51h13.446l20.917 33.633c1.494 2.144 2.49 3.957 2.988 5.441v-.247c-.166-1.814-.249-4.617-.249-8.409V75.51h11.703v54.654zM453.825 130.164h-43.077V75.51h42.33v10.14h-29.88v11.87h27.888v10.14h-27.888v12.859h30.627v9.645z" fill="#000"/></svg>