<svg width="800" height="49" fill="none" xmlns="http://www.w3.org/2000/svg"><path d="M41.41 9.456H26.255V48.14H15.37V9.456H0V.645h41.41v8.811zM86.074 48.14H49.146V.645h36.288v8.811H59.819v10.316h23.907v8.811H59.82V39.76h26.255v8.381zM137.995 48.14h-11.74l-3.415-10.315h-17.931l-3.415 10.315H89.968L107.47.645h12.807l17.717 47.495zm-17.076-18.482-5.977-16.333a58.106 58.106 0 0 1-1.067-4.084h-.214c-.142 1.146-.498 2.58-1.067 4.299l-5.336 16.118h13.661zM193.545 48.14h-10.246V19.987c0-3.009.142-6.59.427-10.746h-.213a68.966 68.966 0 0 1-1.708 8.167l-8.752 30.732h-8.965l-8.752-31.592c-.427-1.72-.996-4.155-1.707-7.307h-.214c0 .86.071 2.078.214 3.654.142 4.298.213 7.378.213 9.241V48.14H143.81V.645h15.796l8.324 31.162c.143.86.356 2.579.641 5.158 0-.43.071-1.003.213-1.72 0-1.862.142-3.008.427-3.438L177.536.645h16.009V48.14zM260.408.645 250.162 48.14h-11.953l-7.258-30.302c-.427-1.576-.711-3.367-.854-5.373-.142 2.292-.427 4.083-.854 5.373l-7.684 30.302h-12.38L198.933.645h10.886l5.336 31.807c.143.716.285 2.077.427 4.083 0-.43.071.072.214 1.505h.213c.285-2.15.569-4.012.854-5.588L224.121.645h11.313l7.684 32.237c0 .143.071.43.214.86.284 1.719.427 3.151.427 4.297h.213c.142-1.719.356-3.51.64-5.372L249.735.645h10.673zM311.475 24.715c-.853 15.33-8.609 23.425-23.266 24.285-14.8-.86-22.627-8.955-23.481-24.285C265.44 8.81 273.267.573 288.209 0c14.515.86 22.27 9.098 23.266 24.715zm-11.74 0c-.284-9.886-4.198-15.044-11.74-15.474-7.684.43-11.74 5.588-12.167 15.474.285 9.743 4.269 14.829 11.954 15.259 7.684-.287 11.669-5.373 11.953-15.26zM361.048 47.925h-13.447l-11.527-18.267h-6.19V48.14h-10.673V.645h21.559c11.527.286 17.504 5.014 17.93 14.184.143 7.88-3.699 12.608-11.526 14.184l13.874 18.912zM339.062 9.026h-9.178v12.68h9.178c5.693 0 8.468-2.077 8.325-6.232.285-4.442-2.49-6.591-8.325-6.448zM411.475 47.925h-13.447L384.366 27.94l-7.044 7.736V48.14H366.65V.645h10.672V22.35L396.747.86h13.234l-18.784 19.986 20.278 27.08zM484.366 48.14H474.12V19.987c0-3.009.143-6.59.427-10.746h-.213a68.766 68.766 0 0 1-1.708 8.167l-8.751 30.732h-8.966l-8.751-31.592a378 378 0 0 1-1.708-7.307h-.213c0 .86.071 2.078.213 3.654.142 4.298.214 7.378.214 9.241V48.14h-10.033V.645h15.796l8.325 31.162c.142.86.355 2.579.64 5.158 0-.43.071-1.003.213-1.72 0-1.862.143-3.008.427-3.438L468.357.645h16.009V48.14zM537.782 48.14h-11.74l-3.416-10.315h-17.93l-3.415 10.315h-11.527L507.257.645h12.808l17.717 47.495zm-17.077-18.482-5.977-16.333a59.228 59.228 0 0 1-1.067-4.084h-.213c-.143 1.146-.498 2.58-1.068 4.299l-5.336 16.118h13.661zM586.288 12.035l-9.819 3.654c-2.277-4.299-6.191-6.448-11.741-6.448-7.115.717-10.957 5.803-11.526 15.259.284 9.743 4.411 14.972 12.38 15.689 5.408 0 9.179-1.648 11.313-4.943v-5.803h-13.874v-8.597h23.693V38.47c-3.273 6.877-10.459 10.316-21.559 10.316-14.942-.573-22.697-8.74-23.266-24.5C542.742 8.955 550.285.86 564.515 0c10.815 0 18.073 4.012 21.773 12.035zM639.062 48.14h-11.74l-3.415-10.315h-17.93l-3.416 10.315h-11.526L608.538.645h12.808l17.716 47.495zm-17.076-18.482-5.977-16.333a58.106 58.106 0 0 1-1.067-4.084h-.214c-.142 1.146-.498 2.58-1.067 4.299l-5.336 16.118h13.661zM685.007 48.14h-42.051v-8.166L670.278 9.67h-24.974V.645h38.635v8.811L655.977 39.76h29.03v8.381zM702.775 48.14h-10.886V.645h10.886V48.14zM753.629 48.14h-10.887l-18.57-29.657c-1.281-2.15-2.135-3.654-2.562-4.514.143 2.15.214 4.872.214 8.167V48.14h-10.033V.645h11.527l17.93 29.228c1.281 1.862 2.135 3.438 2.562 4.728v-.215c-.143-1.576-.214-4.012-.214-7.307V.645h10.033V48.14zM800 48.14h-36.928V.645h36.288v8.811h-25.615v10.316h23.907v8.811h-23.907V39.76H800v8.381z" fill="#000"/></svg>