<?xml version="1.0" standalone="no"?>
<!DOCTYPE svg PUBLIC "-//W3C//DTD SVG 20010904//EN"
 "http://www.w3.org/TR/2001/REC-SVG-20010904/DTD/svg10.dtd">
<svg version="1.0" xmlns="http://www.w3.org/2000/svg"
 width="577.000000pt" height="577.000000pt" viewBox="0 0 577.000000 577.000000"
 preserveAspectRatio="xMidYMid meet">
<metadata>
Created by potrace 1.14, written by Peter Selinger 2001-2017
</metadata>
<g transform="translate(0.000000,577.000000) scale(0.100000,-0.100000)"
fill="#000000" stroke="none">
<path d="M50 3885 l0 -235 410 0 410 0 0 -1028 0 -1028 289 0 289 1 4 25 c2
14 3 475 2 1025 l0 1000 405 5 406 5 0 230 0 230 -1108 3 -1107 2 0 -235z"/>
<path d="M2474 4112 c3 -5 7 -19 9 -33 5 -26 47 -224 53 -249 8 -33 46 -207
50 -230 3 -14 9 -41 14 -60 5 -19 11 -46 14 -60 2 -14 19 -90 36 -170 17 -80
40 -188 51 -240 12 -52 22 -102 24 -110 2 -8 13 -60 24 -115 12 -55 26 -120
32 -145 22 -95 30 -131 74 -335 25 -115 51 -239 59 -275 17 -73 76 -344 82
-375 2 -11 9 -43 15 -70 l11 -51 327 2 c179 1 329 2 333 3 3 0 11 20 16 43 6
24 33 133 61 243 29 110 53 207 55 215 2 8 25 98 51 199 26 101 48 191 50 200
2 9 10 41 19 71 113 425 188 733 201 833 4 27 8 47 9 45 2 -1 6 -30 9 -63 3
-33 19 -116 36 -185 16 -69 41 -172 55 -230 14 -58 45 -188 70 -290 122 -502
161 -663 171 -710 17 -80 89 -366 92 -370 3 -3 147 -5 321 -5 l317 0 33 145
c18 80 34 156 37 170 2 14 34 160 70 325 36 165 91 415 121 555 30 140 71 327
90 415 20 88 38 171 40 185 4 25 49 231 61 280 3 14 8 34 10 45 2 11 21 101
43 199 22 99 40 185 40 193 0 10 -54 13 -284 13 l-284 0 -7 -52 c-4 -29 -9
-62 -11 -73 -2 -11 -11 -63 -19 -115 -9 -52 -18 -108 -21 -125 -8 -46 -46
-287 -50 -315 -2 -14 -6 -41 -9 -60 -20 -116 -25 -148 -29 -175 -3 -16 -12
-70 -20 -120 -15 -91 -19 -115 -31 -195 -4 -25 -9 -56 -11 -70 -62 -382 -100
-644 -96 -667 2 -6 -2 -14 -8 -18 -6 -4 -10 15 -11 52 0 32 -2 67 -4 78 -2 11
-7 40 -10 64 -3 25 -8 48 -10 51 -2 4 -7 22 -10 41 -3 19 -17 79 -31 134 -14
55 -27 107 -29 117 -2 9 -24 103 -50 208 -26 105 -48 199 -50 208 -2 10 -20
85 -40 167 -20 83 -38 161 -41 175 -3 14 -10 43 -16 65 -5 22 -12 47 -14 55
-1 8 -26 110 -54 225 -28 116 -53 219 -55 230 -3 11 -10 41 -17 68 l-12 47
-303 0 c-167 0 -303 -2 -303 -5 0 -2 -41 -181 -90 -397 -50 -216 -92 -402 -95
-413 -2 -11 -47 -207 -100 -435 -89 -382 -123 -549 -140 -688 -6 -48 -16 -62
-21 -29 -4 28 -14 126 -19 177 -5 50 -10 83 -21 148 -5 31 -23 133 -28 157 -3
17 -12 77 -21 135 -2 8 -28 166 -59 350 -31 184 -59 349 -62 365 -2 17 -7 41
-9 55 -11 53 -13 69 -20 121 -4 30 -9 57 -11 60 -2 3 -6 26 -9 50 -3 24 -7 51
-10 59 -2 8 -7 33 -10 55 -2 22 -7 51 -10 65 -3 14 -10 58 -16 98 l-11 72
-295 0 c-162 0 -292 -4 -289 -8z"/>
</g>
</svg>
